<svg width="54" height="23" viewBox="0 0 54 23" fill="none" xmlns="http://www.w3.org/2000/svg">
<rect y="0.0944824" width="54" height="22" rx="11" fill="#F2DBB1"/>
<path d="M8 17.0745H22V3.07448H8V17.0745ZM31.056 16.0945V14.0925H26.142V13.0005L30.832 6.29448H32.442V12.8745H33.842V14.0925H32.442V16.0945H31.056ZM27.668 12.8745H31.14V7.83448L27.668 12.8745ZM35.7893 16.1645C35.5187 16.1645 35.2947 16.0805 35.1173 15.9125C34.9493 15.7351 34.8653 15.5251 34.8653 15.2825C34.8653 15.0305 34.9493 14.8205 35.1173 14.6525C35.2947 14.4751 35.5187 14.3865 35.7893 14.3865C36.06 14.3865 36.2793 14.4751 36.4473 14.6525C36.6153 14.8205 36.6993 15.0305 36.6993 15.2825C36.6993 15.5251 36.6153 15.7351 36.4473 15.9125C36.2793 16.0805 36.06 16.1645 35.7893 16.1645ZM41.1173 16.2625C40.4827 16.2625 39.9413 16.1411 39.4933 15.8985C39.0453 15.6465 38.6907 15.3151 38.4293 14.9045C38.168 14.4845 38.0093 14.0318 37.9533 13.5465H39.2553C39.3487 14.0318 39.5587 14.4098 39.8853 14.6805C40.212 14.9418 40.6273 15.0725 41.1313 15.0725C41.598 15.0725 42.0087 14.9325 42.3633 14.6525C42.718 14.3725 43.0027 13.9478 43.2173 13.3785C43.432 12.8091 43.5533 12.0905 43.5813 11.2225C43.5907 11.1945 43.5953 11.1665 43.5953 11.1385C43.5953 11.1105 43.5953 11.0825 43.5953 11.0545C43.446 11.3345 43.2407 11.5911 42.9793 11.8245C42.718 12.0578 42.41 12.2445 42.0553 12.3845C41.71 12.5151 41.3227 12.5805 40.8933 12.5805C40.3427 12.5805 39.8247 12.4545 39.3393 12.2025C38.8633 11.9411 38.4713 11.5725 38.1633 11.0965C37.8647 10.6205 37.7153 10.0651 37.7153 9.43048C37.7153 8.86115 37.8507 8.32448 38.1213 7.82048C38.4013 7.31648 38.7933 6.91048 39.2973 6.60248C39.8107 6.28515 40.4127 6.12648 41.1033 6.12648C41.822 6.12648 42.424 6.26182 42.9093 6.53248C43.404 6.79382 43.796 7.15315 44.0853 7.61048C44.384 8.05848 44.5987 8.56248 44.7293 9.12248C44.8693 9.67315 44.9393 10.2425 44.9393 10.8305C44.9393 11.9038 44.79 12.8511 44.4913 13.6725C44.1927 14.4845 43.7587 15.1191 43.1893 15.5765C42.62 16.0338 41.9293 16.2625 41.1173 16.2625ZM41.2013 11.3905C41.6027 11.3905 41.962 11.3018 42.2793 11.1245C42.5967 10.9378 42.8487 10.6905 43.0353 10.3825C43.222 10.0745 43.3153 9.73382 43.3153 9.36048C43.3153 8.96848 43.222 8.62315 43.0353 8.32448C42.8487 8.01648 42.592 7.77848 42.2653 7.61048C41.948 7.43315 41.5887 7.34448 41.1873 7.34448C40.7953 7.34448 40.4407 7.43315 40.1233 7.61048C39.806 7.77848 39.554 8.01648 39.3673 8.32448C39.19 8.62315 39.1013 8.97315 39.1013 9.37448C39.1013 9.77582 39.19 10.1305 39.3673 10.4385C39.554 10.7371 39.806 10.9705 40.1233 11.1385C40.4407 11.3065 40.8 11.3905 41.2013 11.3905Z" fill="#DD9115"/>
</svg>
