<svg width="54" height="23" viewBox="0 0 54 23" fill="none" xmlns="http://www.w3.org/2000/svg">
<rect y="0.0944824" width="54" height="22" rx="11" fill="#F2DBB1"/>
<path d="M8 17.0745H22V3.07448H8V17.0745ZM31.056 16.0945V14.0925H26.142V13.0005L30.832 6.29448H32.442V12.8745H33.842V14.0925H32.442V16.0945H31.056ZM27.668 12.8745H31.14V7.83448L27.668 12.8745ZM35.7893 16.1645C35.5187 16.1645 35.2947 16.0805 35.1173 15.9125C34.9493 15.7351 34.8653 15.5251 34.8653 15.2825C34.8653 15.0305 34.9493 14.8205 35.1173 14.6525C35.2947 14.4751 35.5187 14.3865 35.7893 14.3865C36.06 14.3865 36.2793 14.4751 36.4473 14.6525C36.6153 14.8205 36.6993 15.0305 36.6993 15.2825C36.6993 15.5251 36.6153 15.7351 36.4473 15.9125C36.2793 16.0805 36.06 16.1645 35.7893 16.1645ZM41.4152 16.2625C40.7898 16.2625 40.2158 16.1505 39.6932 15.9265C39.1798 15.6931 38.7692 15.3478 38.4612 14.8905C38.1625 14.4238 38.0038 13.8405 37.9852 13.1405H39.3852C39.3945 13.4951 39.4785 13.8171 39.6372 14.1065C39.7958 14.3958 40.0245 14.6291 40.3232 14.8065C40.6312 14.9745 40.9952 15.0585 41.4152 15.0585C41.8352 15.0585 42.1852 14.9791 42.4652 14.8205C42.7545 14.6618 42.9692 14.4471 43.1092 14.1765C43.2585 13.9058 43.3332 13.6025 43.3332 13.2665C43.3332 12.8465 43.2305 12.5058 43.0252 12.2445C42.8292 11.9831 42.5585 11.7871 42.2132 11.6565C41.8772 11.5258 41.4992 11.4605 41.0792 11.4605H40.3512V10.2845H41.0792C41.6672 10.2845 42.1338 10.1491 42.4792 9.87848C42.8338 9.60782 43.0112 9.22515 43.0112 8.73048C43.0112 8.31982 42.8758 7.98382 42.6052 7.72248C42.3345 7.46115 41.9378 7.33048 41.4152 7.33048C40.8925 7.33048 40.4772 7.47982 40.1692 7.77848C39.8705 8.07715 39.7025 8.45515 39.6652 8.91248H38.2792C38.3072 8.36182 38.4518 7.87648 38.7132 7.45648C38.9838 7.02715 39.3478 6.70048 39.8052 6.47648C40.2718 6.24315 40.8085 6.12648 41.4152 6.12648C42.0685 6.12648 42.6145 6.24315 43.0532 6.47648C43.5012 6.70048 43.8372 7.00382 44.0612 7.38648C44.2945 7.76915 44.4112 8.18915 44.4112 8.64648C44.4112 8.99182 44.3458 9.31382 44.2152 9.61248C44.0845 9.90182 43.8978 10.1538 43.6552 10.3685C43.4125 10.5831 43.1185 10.7371 42.7732 10.8305C43.1465 10.9051 43.4825 11.0498 43.7812 11.2645C44.0798 11.4791 44.3132 11.7591 44.4812 12.1045C44.6492 12.4405 44.7332 12.8325 44.7332 13.2805C44.7332 13.8125 44.6072 14.3071 44.3552 14.7645C44.1032 15.2125 43.7298 15.5765 43.2352 15.8565C42.7498 16.1271 42.1432 16.2625 41.4152 16.2625Z" fill="#DD9115"/>
</svg>
